<svg xmlns="http://www.w3.org/2000/svg" width="1200" height="1200" viewBox="0 0 1200 1200" role="img" aria-labelledby="title desc">
  <title id="title">Backend engineering records illustration</title>
  <desc id="desc">Notebook with backend engineering records text on a warm paper background.</desc>
  <rect width="1200" height="1200" fill="#f6efe4" rx="40"/>
  <rect x="280" y="200" width="640" height="800" rx="38" fill="#fffaf2" stroke="#d5c6b6" stroke-width="5"/>
  <rect x="290" y="210" width="620" height="780" rx="32" fill="url(#paper)" opacity="0.55"/>
  <g fill="none" stroke="#c9b299" stroke-width="4">
    <line x1="328" y1="260" x2="875" y2="260"/>
    <line x1="328" y1="470" x2="875" y2="470"/>
    <line x1="328" y1="670" x2="875" y2="670"/>
  </g>
  <g id="tabs" fill="#f9d6b0" stroke="#d1a880" stroke-width="3">
    <rect x="264" y="250" width="26" height="60" rx="6"/>
    <rect x="264" y="320" width="26" height="60" rx="6" fill="#c9e0ff" stroke="#98b7e1"/>
    <rect x="264" y="390" width="26" height="60" rx="6" fill="#b1f0da" stroke="#7cc9ae"/>
    <rect x="264" y="460" width="26" height="60" rx="6" fill="#ffd1df" stroke="#e6a6ba"/>
    <rect x="264" y="530" width="26" height="60" rx="6" fill="#ffe7b8" stroke="#dfc184"/>
    <rect x="264" y="600" width="26" height="60" rx="6" fill="#c6c2ff" stroke="#9e98e1"/>
  </g>
  <text x="600" y="330" font-family="'Segoe UI', 'Pretendard', sans-serif" font-size="44" font-weight="700" text-anchor="middle" fill="#4a4036" letter-spacing="1">
    BACKEND
  </text>
  <text x="600" y="385" font-family="'Segoe UI', 'Pretendard', sans-serif" font-size="44" font-weight="700" text-anchor="middle" fill="#4a4036" letter-spacing="1">
    ENGINEERING
  </text>
  <rect x="410" y="430" width="380" height="230" rx="18" fill="#fbf3e4" stroke="#d5c6b6" stroke-width="4"/>
  <rect x="448" y="478" width="95" height="60" rx="12" fill="#fff" stroke="#cdb8a3" stroke-width="3"/>
  <rect x="567" y="478" width="55" height="120" rx="12" fill="#ffe3c0" stroke="#c9a27b" stroke-width="3"/>
  <rect x="642" y="478" width="95" height="60" rx="12" fill="#f1fbff" stroke="#9ab5c7" stroke-width="3"/>
  <path d="M496 538h71v40" fill="none" stroke="#d5c6b6" stroke-width="4" stroke-linecap="round" stroke-linejoin="round"/>
  <path d="M596 538l0 60h46" fill="none" stroke="#d5c6b6" stroke-width="4" stroke-linecap="round" stroke-linejoin="round"/>
  <path d="M689 538h30" fill="none" stroke="#d5c6b6" stroke-width="4" stroke-linecap="round" stroke-linejoin="round"/>
  <rect x="470" y="590" width="260" height="50" rx="14" fill="#f0e7da" stroke="#cdb8a3" stroke-width="3"/>
  <rect x="610" y="645" width="60" height="60" rx="12" fill="#fce5e5" stroke="#d6adad" stroke-width="3"/>
  <rect x="500" y="640" width="80" height="30" rx="10" fill="#c9eaff" stroke="#9fbad8" stroke-width="3"/>
  <text x="600" y="720" font-family="'Segoe UI', 'Pretendard', sans-serif" font-size="46" font-weight="800" text-anchor="middle" fill="#c36334" letter-spacing="1.4">
    RECORDS
  </text>
  <rect x="528" y="762" width="164" height="72" rx="12" fill="#fef7e7" stroke="#d5c6b6" stroke-width="3"/>
  <path d="M575 780h35l16-22h35" fill="none" stroke="#d29a6c" stroke-width="5" stroke-linecap="round" stroke-linejoin="round"/>
  <rect x="356" y="888" width="160" height="78" rx="16" fill="#ffe6c7" stroke="#d4b28e" stroke-width="4"/>
  <path d="M378 907h115" fill="none" stroke="#c5936d" stroke-width="6" stroke-linecap="round"/>
  <circle cx="620" cy="876" r="12" fill="#e0d1bf" stroke="#bba992" stroke-width="3"/>
  <rect x="720" y="870" width="120" height="92" rx="14" fill="#e6eff8" stroke="#b1c1d1" stroke-width="4"/>
  <path d="M745 910h70" fill="none" stroke="#8ca5ba" stroke-width="6" stroke-linecap="round"/>
  <rect x="500" y="850" width="36" height="110" rx="10" fill="#d5c6b6"/>
  <rect x="708" y="250" width="26" height="60" rx="6" fill="#b1f0da" stroke="#7cc9ae" stroke-width="3"/>
  <rect x="880" y="420" width="26" height="60" rx="6" fill="#c6c2ff" stroke="#9e98e1" stroke-width="3"/>
  <defs>
    <linearGradient id="paper" x1="0" y1="0" x2="1" y2="1">
      <stop offset="0%" stop-color="#f8f2e7" stop-opacity="0.9" />
      <stop offset="100%" stop-color="#f0e6d6" stop-opacity="0.7" />
    </linearGradient>
  </defs>
</svg>
